<svg xmlns="http://www.w3.org/2000/svg" width="50" height="48" viewBox="0 0 50 48">
  <defs>
    <style>
      .cls-1 {
        fill: #fff;
        fill-rule: evenodd;
      }
    </style>
  </defs>
  <path id="icon6" class="cls-1" d="M975.973,6498.75a0.9,0.9,0,1,1-.91.9A0.9,0.9,0,0,1,975.973,6498.75Zm-32.763,0a0.9,0.9,0,1,1-.91.9A0.9,0.9,0,0,1,943.21,6498.75Zm2.73,2.7a0.9,0.9,0,1,1-.91.9A0.9,0.9,0,0,1,945.94,6501.45Zm5.461,0a0.9,0.9,0,1,1-.91.9A0.9,0.9,0,0,1,951.4,6501.45Zm-2.731,2.7a0.9,0.9,0,1,1-.91.9A0.9,0.9,0,0,1,948.67,6504.15Zm5.461,0a0.9,0.9,0,1,1-.91.9A0.9,0.9,0,0,1,954.131,6504.15Zm2.73,2.7a0.9,0.9,0,1,1-.91.9A0.909,0.909,0,0,1,956.861,6506.85Zm5.461,0a0.9,0.9,0,1,1-.91.9A0.91,0.91,0,0,1,962.322,6506.85Zm2.73-2.7a0.9,0.9,0,1,1-.91.9A0.9,0.9,0,0,1,965.052,6504.15Zm-5.461,5.4a0.905,0.905,0,1,1-.91.91A0.911,0.911,0,0,1,959.591,6509.55Zm8.191-8.1a0.9,0.9,0,1,1-.91.9A0.9,0.9,0,0,1,967.782,6501.45Zm5.461,0a0.9,0.9,0,1,1-.911.9A0.9,0.9,0,0,1,973.243,6501.45Zm-2.731,2.7a0.9,0.9,0,1,1-.91.9A0.9,0.9,0,0,1,970.512,6504.15Zm5.951,1.64,8.549-4.83-8.788-4.94,8.788-4.97L960.006,6477,935,6491.05l8.788,4.97L935,6500.96l8.788,4.97L935,6510.86,960.006,6525l25.007-14.14-8.788-4.93,0.065-.04A0.659,0.659,0,0,0,976.463,6505.79Zm-16.457-26.72,21.329,11.99-6.95,3.93h0l-14.378,8.12-21.329-12.05Zm-14.877,18.27a0.9,0.9,0,0,0,1.441.25l2.059,1.17a0.9,0.9,0,1,0,.952.89,0.827,0.827,0,0,0-.121-0.42l9.4,5.31a0.883,0.883,0,0,0-.181.51,0.91,0.91,0,0,0,1.82,0,1.191,1.191,0,0,0-.026-0.13l9.148-5.17a0.9,0.9,0,0,0,.889.8,0.889,0.889,0,0,0,.541-1.61l2-1.13a1.138,1.138,0,0,0,.186.04,0.9,0.9,0,0,0,.853-0.63l0.291-.16,6.948,3.9-1.805,1.02a0.91,0.91,0,0,0-1.736.37,0.883,0.883,0,0,0,.181.51l-3.59,2.03h0l-5.814,3.29a0.885,0.885,0,0,0,.122-0.43,0.91,0.91,0,1,0-.949.9l-2.06,1.16a0.9,0.9,0,0,0-.631-0.26,0.909,0.909,0,0,0-.91.9,0.824,0.824,0,0,0,.042.21l-4.178,2.36-5.021-2.84a0.9,0.9,0,0,0-.854-0.63,1.14,1.14,0,0,0-.188.04l-2-1.13a0.886,0.886,0,0,0,.371-0.71,0.9,0.9,0,0,0-1.8-.1l-9.149-5.17a0.747,0.747,0,0,0,.026-0.13,0.9,0.9,0,0,0-.91-0.9,0.928,0.928,0,0,0-.565.21l-1.237-.7Zm36.2,13.53-21.329,12.06-21.327-12.06,6.946-3.91,14.382,8.13,14.381-8.13Z" transform="translate(-935 -6477)"/>
</svg>
