<?xml version="1.0" encoding="utf-8"?>
<!-- Generator: Adobe Illustrator 19.0.0, SVG Export Plug-In . SVG Version: 6.00 Build 0)  -->
<svg version="1.1" id="Шар_1" xmlns="http://www.w3.org/2000/svg" xmlns:xlink="http://www.w3.org/1999/xlink" x="0px" y="0px"
	 viewBox="10 -3 50 50" style="enable-background:new 10 -3 50 50;" xml:space="preserve" width="50px" height="50px">
<style type="text/css">
	.st0{fill:#FFFFFF;}
</style>
<g>
	<path class="st0" d="M50.1,17.2V5c1.3-0.1,2.3-1.3,2.1-2.6c-0.1-1.2-1.2-2.1-2.4-2.1H39.2c-1.3,0-2.4,1.1-2.4,2.4
		c0,1.2,0.9,2.2,2.1,2.4v12.2c-2.4,0.9-4.6,2.5-6.2,4.5c-0.3,0.3-0.3,0.8,0,1.1s0.8,0.3,1.1,0c0,0,0.1-0.1,0.1-0.1
		c1.6-1.9,3.7-3.4,6.1-4.2c0.3-0.1,0.5-0.4,0.5-0.8V5h4.5c0.4,0,0.8-0.4,0.8-0.8c0-0.4-0.4-0.8-0.8-0.8c0,0,0,0,0,0h-5.9
		c-0.4,0-0.8-0.4-0.8-0.8c0-0.4,0.4-0.8,0.8-0.8h10.6c0.4,0,0.8,0.4,0.8,0.8c0,0.4-0.4,0.8-0.8,0.8h-1.6c-0.4,0-0.8,0.4-0.8,0.8
		c0,0.4,0.4,0.8,0.8,0.8c0,0,0,0,0,0h0.3v12.8c0,0.3,0.2,0.6,0.5,0.8c7.2,2.5,11,10.4,8.5,17.6s-10.4,11-17.6,8.5
		c-0.2-0.1-0.4-0.1-0.6-0.2c-0.4-0.1-0.9,0.1-1,0.5c-0.1,0.4,0.1,0.8,0.4,1c7.9,3.2,16.9-0.6,20.1-8.5c3.2-7.9-0.6-16.9-8.5-20.1
		C50.3,17.3,50.2,17.2,50.1,17.2L50.1,17.2z"/>
	<path class="st0" d="M51.3,34.4c0,0.4-0.4,0.8-0.8,0.8c-0.4,0-0.8-0.4-0.8-0.8c0-0.4,0.4-0.8,0.8-0.8l0,0
		C50.9,33.6,51.3,33.9,51.3,34.4L51.3,34.4z"/>
	<path class="st0" d="M48.1,37.6c0,0.4-0.4,0.8-0.8,0.8c-0.4,0-0.8-0.4-0.8-0.8c0-0.4,0.4-0.8,0.8-0.8l0,0
		C47.8,36.8,48.1,37.1,48.1,37.6L48.1,37.6L48.1,37.6z"/>
	<path class="st0" d="M40.4,41.4c-0.4-0.2-0.9-0.1-1.1,0.3c-0.2,0.4-0.1,0.9,0.3,1.1c0,0,0.1,0,0.1,0c6.1,2.9,13.4,0.2,16.3-5.9
		c1.7-3.6,1.5-7.8-0.5-11.3c-0.2-0.3-0.5-0.4-0.8-0.4l-0.3,0c0,0-0.1,0-0.1,0c-0.9,0.2-1.7,0.7-2.4,1.3c-0.5,0.5-1.3,0.8-2.1,0.8
		c-0.7,0-1.5-0.3-2-0.9c-1.6-1.7-4.3-1.7-5.9-0.1c0,0,0,0-0.1,0.1c-0.5,0.6-1.2,0.9-2,0.9c-0.8,0-1.5-0.2-2.1-0.8
		c-0.7-0.6-1.5-1-2.4-1.3c0,0-0.1,0-0.1,0l-0.3,0c-0.3,0-0.6,0.1-0.8,0.4l0,0c-0.2,0.4-0.1,0.9,0.3,1.1c0.2,0.1,0.3,0.1,0.5,0.1h0
		c0.7,0.2,1.3,0.5,1.8,1c1.7,1.5,4.4,1.5,6.1-0.1c1-1.1,2.6-1.2,3.7-0.2c0.1,0.1,0.1,0.1,0.2,0.2c1.7,1.6,4.3,1.7,6.1,0.1
		c0.4-0.4,0.9-0.7,1.5-0.9c2.6,5.2,0.5,11.6-4.7,14.3C46.7,42.7,43.3,42.8,40.4,41.4L40.4,41.4L40.4,41.4z"/>
	<path class="st0" d="M29.2,17.6V1.8c1.3-0.1,2.3-1.3,2.1-2.6C31.2-2.1,30.2-3,29-3H18.3C17-3,16-1.9,16-0.6c0,1.2,0.9,2.2,2.1,2.4
		v12.8c0,0.4,0.4,0.8,0.8,0.8s0.8-0.4,0.8-0.8V1.8h4.5C24.6,1.8,25,1.4,25,1c0-0.4-0.4-0.8-0.8-0.8c0,0,0,0,0,0h-5.8
		c-0.4,0-0.8-0.4-0.8-0.8s0.4-0.8,0.8-0.8c0,0,0,0,0,0H29c0.4,0,0.8,0.4,0.8,0.8S29.4,0.2,29,0.2c0,0,0,0,0,0h-1.6
		c-0.4,0-0.8,0.4-0.8,0.8s0.4,0.8,0.8,0.8c0,0,0,0,0,0h0.3v16c0,0.1,0,0.2,0,0.3l7.8,22.4c0.5,1.2,0.4,2.5-0.3,3.5
		c-0.8,1-2,1.5-3.2,1.4H15.4C14.2,45.5,13,45,12.2,44c-0.7-1.1-0.8-2.4-0.3-3.5L19.6,18c0.2-0.4,0-0.9-0.4-1c-0.4-0.2-0.9,0-1,0.4
		c0,0,0,0.1,0,0.1l-7.8,22.4c-0.7,1.6-0.5,3.5,0.5,5c1.1,1.4,2.8,2.2,4.5,2.1h16.5c2.8,0.2,5.2-1.8,5.5-4.6c0.1-0.8-0.1-1.7-0.4-2.5
		L29.2,17.6z"/>
	<path class="st0" d="M16.9,34.1c-0.4-0.3-0.9-0.2-1.1,0.1c-0.1,0.1-0.1,0.1-0.1,0.2L13.4,41c-0.3,0.7-0.3,1.4,0.1,2.1
		c0.5,0.6,1.2,0.8,1.9,0.8h16.5c0.7,0.1,1.5-0.2,1.9-0.8c0.4-0.6,0.4-1.4,0.1-2.1l-2.2-6.5c-0.1-0.4-0.6-0.6-1-0.5
		c-0.1,0-0.2,0.1-0.2,0.1c-0.5,0.4-1.2,0.6-1.8,0.6c-0.7,0-1.5-0.3-2-0.9c-1.6-1.7-4.3-1.7-5.9-0.1c0,0,0,0-0.1,0.1
		c-0.5,0.6-1.2,0.9-2,0.9C18,34.8,17.4,34.5,16.9,34.1L16.9,34.1L16.9,34.1z M21.7,35c1-1.1,2.6-1.2,3.7-0.2
		c0.1,0.1,0.1,0.1,0.2,0.2c0.8,0.8,1.9,1.3,3,1.3c0.7,0,1.3-0.1,1.9-0.4l1.9,5.5c0.1,0.2,0.1,0.4,0.1,0.6c-0.2,0.1-0.4,0.1-0.6,0.1
		H15.4c-0.2,0-0.4,0-0.6-0.1c0-0.2,0-0.4,0.1-0.6l1.9-5.5c0.6,0.3,1.2,0.4,1.9,0.4C19.8,36.3,20.9,35.8,21.7,35L21.7,35L21.7,35z"/>
</g>
</svg>
