<svg xmlns="http://www.w3.org/2000/svg" width="50" height="50" viewBox="0 0 50 50">
  <defs>
    <style>
      .cls-1 {
        fill: #fff;
        fill-rule: evenodd;
      }
    </style>
  </defs>
  <path id="icon1" class="cls-1" d="M942.258,5849.38h1.613v1.61h-1.613v-1.61h0Zm-1.613-2.42h1.613v1.62h-1.613v-1.62h0Zm7.26,4.03h1.612v1.62h-1.612v-1.62h0Zm3.226-1.61h1.613v1.61h-1.613v-1.61h0Zm24.2,21.66v-1.5h-1.613v1.5a3.223,3.223,0,0,1-1.492-.85l1.3-.76-0.807-1.39-1.3.74a3.146,3.146,0,0,1-.129-0.85,3.242,3.242,0,0,1,.13-0.86l1.3,0.75,0.806-1.4-1.3-.75a3.218,3.218,0,0,1,1.492-.85v1.5h1.613v-1.5a3.228,3.228,0,0,1,1.492.85l-1.3.75,0.806,1.4,1.3-.75a3.282,3.282,0,0,1,.129.86,3.146,3.146,0,0,1-.129.85l-1.3-.74-0.806,1.39,1.305,0.76a3.228,3.228,0,0,1-1.492.85h0Zm-0.807-7.95a4.84,4.84,0,1,0,4.84,4.84,4.844,4.844,0,0,0-4.84-4.84h0Zm-7.259,11.29v-12.9H981.78v12.9H967.262Zm1.613-17.74h11.292v3.22H968.875v-3.22h0Zm2.42-9.08a5.612,5.612,0,0,0,6.452,0v7.47H971.3v-7.47h0Zm-4.936-10.49a5.652,5.652,0,0,0,4.04-4.46l4.188,4.68h-0.066a5.641,5.641,0,0,0-5.1,3.23l-3.065-3.45h0Zm-10.923,5.44a2.638,2.638,0,0,1-3.607-3.85l7.369-7a5.636,5.636,0,0,0,2.767,4.83l-6.529,6.02h0Zm9.406-14.9a4.03,4.03,0,1,1,0,8.06h-0.009a4.03,4.03,0,1,1,0-8.06h0Zm13.712,15.32a4.033,4.033,0,1,1-4.033-4.03,4.037,4.037,0,0,1,4.033,4.03h0Zm-40.328,31.45v-6.45h8.065v-1.61h-8.065v-4.84h11.291v4.84h-1.612v1.61h1.612v6.45H938.226Zm1.613-16.13h8.066v1.61h-8.066v-1.61h0Zm0-3.22h5.646a2.409,2.409,0,0,1,2.271,1.61h-7.917v-1.61h0Zm43.555,19.35v-14.52H981.78v-4.83h-2.419v-9.21a5.563,5.563,0,0,0,.806-2.89,5.638,5.638,0,0,0-2.628-4.76l-7.29-8.15a5.644,5.644,0,0,0-10.139-1.45l-9.392,8.92a4.245,4.245,0,0,0-.654,5.37l-4.343,4.34,1.14,1.14,4.319-4.32a4.206,4.206,0,0,0,5.35-.32l7.094-6.55a6.064,6.064,0,0,0,.746.11l4.534,5.1c-0.019.19-.029,0.38-0.029,0.57a5.573,5.573,0,0,0,.807,2.89v9.21h-2.42v4.83h-1.613v14.52H951.131v-14.52h-1.614v-1.61h1.614v-1.61h-1.695a4.041,4.041,0,0,0-3.951-3.23h-7.259v3.23h-1.614v1.61h1.614v1.61h-1.614v14.52H935v1.61h50.007v-1.61h-1.612Z" transform="translate(-935 -5826)"/>
</svg>
