<svg xmlns="http://www.w3.org/2000/svg" width="50" height="50" viewBox="0 0 50 50">
  <defs>
    <style>
      .cls-1 {
        fill: #fff;
        fill-rule: evenodd;
      }
    </style>
  </defs>
  <path id="icon3" class="cls-1" d="M981.49,6132.78h2.388v-12.9H981.49v-21.16l1.2,0.39,2.307-4.67L960,6086l-25,8.44,2.308,4.67,1.2-.39v35.67h-3.184V6136h49.348v-1.61H981.49v-1.61Zm0.8-11.28v9.67h-0.8v-9.67h0.8Zm-25.836,12.89H945.673v-21.76h7.96v18.54h-6.368v1.61h7.959v-23.37h1.592v18.16A4.855,4.855,0,0,0,956.45,6134.39Zm3.55,0a3.225,3.225,0,1,1,3.184-3.22A3.209,3.209,0,0,1,960,6134.39Zm4.542-17.49-1.125,1.14,1.029,1.04-3.088,3.13,3.23-11.99h9.178l2.945,8.35-9.723,4.54h-4.271l2.854-2.89,1.03,1.04,1.125-1.14Zm-6.01,9.67c-0.042.01-.082,0.03-0.124,0.04v-13.98h3.879Zm5.018,7.82a4.907,4.907,0,0,0,.947-1.61h7.72a4.893,4.893,0,0,0,.948,1.61H963.55Zm13.164,0a3.225,3.225,0,1,1,3.184-3.22A3.209,3.209,0,0,1,976.714,6134.39Zm3.184-6.82a4.713,4.713,0,0,0-3.184-1.24,4.812,4.812,0,0,0-4.775,4.84h-7.163a4.814,4.814,0,0,0-4.533-4.83l0.438-1.62h6.657l9.91-4.63,0.5,1.41H979.9v6.07h0Zm0-7.69h-1.031l-3.411-9.66h1.258v-1.62H961.592v1.62h1.346l-0.218.8h-4.312v-1.61H960v-1.61h-7.959v1.61h1.592v1.61h-9.551v23.37H940.1v-29.01h39.8v14.5Zm0-16.11H940.1v-5.57l19.9-6.48,19.9,6.48v5.57ZM960,6090.03l-21.879,7.12-0.876-1.77L960,6087.7l22.755,7.68-0.876,1.77Zm-0.8,4.88H960.8v1.61H959.2v-1.61Zm3.184,0h1.592v1.61h-1.592v-1.61Zm-6.368,0h1.592v1.61H956.02v-1.61Z" transform="translate(-935 -6086)"/>
</svg>
