<svg xmlns="http://www.w3.org/2000/svg" width="50" height="49.97" viewBox="0 0 50 49.97">
  <defs>
    <style>
      .cls-1 {
        fill: #fff;
        fill-rule: evenodd;
      }
    </style>
  </defs>
  <path id="icon4" class="cls-1" d="M975.158,6236.21v-12.23a2.392,2.392,0,0,0-.266-4.77H964.255a2.392,2.392,0,0,0-.266,4.77v12.23a15.34,15.34,0,0,0-6.233,4.47,0.793,0.793,0,0,0,.1,1.12,0.772,0.772,0,0,0,.512.19,0.792,0.792,0,0,0,.611-0.29,13.8,13.8,0,0,1,6.071-4.18,0.815,0.815,0,0,0,.537-0.76v-12.77h4.52a0.791,0.791,0,0,0,.8-0.79,0.8,0.8,0,0,0-.8-0.8h-5.85a0.8,0.8,0,0,1,0-1.6h10.637a0.8,0.8,0,0,1,0,1.6h-1.6a0.8,0.8,0,0,0-.8.8,0.791,0.791,0,0,0,.8.79h0.266v12.77a0.815,0.815,0,0,0,.537.76,13.828,13.828,0,1,1-9.726,25.88,0.8,0.8,0,0,0-.6,1.48,15.424,15.424,0,1,0,11.385-28.67h0Zm0,0,1.159,17.18a0.8,0.8,0,1,1-.8-0.8,0.8,0.8,0,0,1,.8.8h0Zm0,0-3.191,3.19a0.8,0.8,0,1,1-.8-0.8,0.8,0.8,0,0,1,.8.8h0Zm0,0-8.058,3.64a0.8,0.8,0,0,0-.677,1.45,12.236,12.236,0,0,0,15.778-17.2,0.791,0.791,0,0,0-.8-0.39l-0.29.04a0.4,0.4,0,0,0-.108.02,6.225,6.225,0,0,0-2.379,1.28,2.686,2.686,0,0,1-2.065.78,2.654,2.654,0,0,1-1.957-.87,4.192,4.192,0,0,0-5.992,0,2.65,2.65,0,0,1-1.956.87,2.688,2.688,0,0,1-2.065-.78,6.217,6.217,0,0,0-2.379-1.28,0.389,0.389,0,0,0-.107-0.02l-0.291-.04a0.789,0.789,0,0,0-.8.39l-0.021.03a0.8,0.8,0,0,0,.294,1.09,0.765,0.765,0,0,0,.527.1h0.013a4.564,4.564,0,0,1,1.764.98,4.467,4.467,0,0,0,6.06-.13,2.635,2.635,0,0,1,3.913,0,4.467,4.467,0,0,0,6.06.13,4.811,4.811,0,0,1,1.477-.89,10.64,10.64,0,0,1-14,14.44h0Zm0,0-10.811-23.59v-15.84a2.392,2.392,0,0,0-.266-4.77H943.354a2.392,2.392,0,0,0-.266,4.77v12.78a0.8,0.8,0,1,0,1.6,0V6220.8h4.52a0.791,0.791,0,0,0,.8-0.79,0.8,0.8,0,0,0-.8-0.8h-5.85a0.8,0.8,0,0,1,0-1.6h10.637a0.8,0.8,0,0,1,0,1.6h-1.6a0.8,0.8,0,0,0-.8.8,0.791,0.791,0,0,0,.8.79h0.266v15.96a0.771,0.771,0,0,0,.044.26l7.753,22.42a3.475,3.475,0,0,1-3.542,4.97H940.429a3.475,3.475,0,0,1-3.542-4.97l7.753-22.42a0.8,0.8,0,0,0-1.508-.52l-7.753,22.42a5.062,5.062,0,0,0,5.05,7.09h16.487a5.062,5.062,0,0,0,5.05-7.09Zm0,0-12.379,16.48a0.83,0.83,0,0,0-.716-0.13,0.791,0.791,0,0,0-.527.5l-2.24,6.48a1.921,1.921,0,0,0,2.034,2.86h16.487a1.921,1.921,0,0,0,2.034-2.86l-2.24-6.48a0.791,0.791,0,0,0-.527-0.5,0.83,0.83,0,0,0-.716.13,2.549,2.549,0,0,1-1.843.6,2.653,2.653,0,0,1-1.956-.87,4.192,4.192,0,0,0-5.992,0,2.653,2.653,0,0,1-1.956.87,2.548,2.548,0,0,1-1.842-.6h0Zm4.838,0.94a2.634,2.634,0,0,1,3.912,0,4.192,4.192,0,0,0,3,1.25,4.387,4.387,0,0,0,1.9-.36l1.915,5.54a1.561,1.561,0,0,1,.109.64,1.585,1.585,0,0,1-.635.1H940.429a1.585,1.585,0,0,1-.635-0.1,1.561,1.561,0,0,1,.109-0.64l1.915-5.53a4.552,4.552,0,0,0,1.9.35,4.188,4.188,0,0,0,3-1.25h0Zm0,0" transform="translate(-935 -6216.03)"/>
</svg>
