<svg xmlns="http://www.w3.org/2000/svg" width="47" height="50" viewBox="0 0 47 50">
  <defs>
    <style>
      .cls-1 {
        fill: #fff;
        fill-rule: evenodd;
      }
    </style>
  </defs>
  <path id="icon5" class="cls-1" d="M983.882,6381.86a0.926,0.926,0,0,0-.6-0.46c-0.065-.02-5.307-1.19-11.988-2.12-0.01-.03-0.016-0.06-0.029-0.09-2.946-6.96-3.921-6.96-4.446-6.96-0.631,0-3.771.65-6.326,1.21v-6.7H960.6a10.427,10.427,0,0,0,2.646.35,10.143,10.143,0,0,0,7.23-3.04,10.43,10.43,0,0,0,2.526-10.45,0.909,0.909,0,0,0-.591-0.59,10.121,10.121,0,0,0-10.322,2.55,10.916,10.916,0,0,0-1.132,1.37,12.53,12.53,0,0,0-3.53-7.28,12.242,12.242,0,0,0-12.472-3.09,0.9,0.9,0,0,0-.591.6,12.593,12.593,0,0,0,3.052,12.62,12.264,12.264,0,0,0,8.737,3.67,12.742,12.742,0,0,0,2.526-.26v10.65c-0.35.07-.661,0.14-0.915,0.2-1.89-.37-5-0.77-6.05.29L950.06,6376l-2.509.85c-3.047,1.03-4.09,5.58-4.205,6.13a20.785,20.785,0,0,1-3.038-2.28,0.908,0.908,0,0,0-.605-0.24c-2,0-2.711.99-2.711,1.83,0,0.26,0,.75,1.9,2.98a43.535,43.535,0,0,0,4.4,4.45c3.253,2.87,8.093,6.29,12.682,6.29a38.633,38.633,0,0,0,11.826-1.95,14.752,14.752,0,0,1,3.537-.79,68.258,68.258,0,0,0,8.282-.93,0.912,0.912,0,0,0,.691-0.56l3.614-9.15a0.933,0.933,0,0,0-.039-0.77h0Zm-20.511-25a8.332,8.332,0,0,1,8.041-2.24,8.594,8.594,0,0,1-2.211,8.14,8.324,8.324,0,0,1-7.3,2.38,9,9,0,0,1,2.61-3.07,0.91,0.91,0,0,0,.4-1.22,0.9,0.9,0,0,0-1.212-.41,8.565,8.565,0,0,0-2.791,2.87,8.547,8.547,0,0,1,2.462-6.45h0Zm-8.8-.33a9.524,9.524,0,0,1,3.239,4.95s0,0,0,.01a10.474,10.474,0,0,1-9.111-3,10.758,10.758,0,0,1-2.739-10.32,10.473,10.473,0,0,1,10.2,2.77,10.745,10.745,0,0,1,3.012,8.9,10.4,10.4,0,0,0-3.6-4.83,0.9,0.9,0,0,0-1.253.25,0.923,0.923,0,0,0,.251,1.27h0Zm-9.458,26.85c0.223-1.12,1.2-4.18,3.015-4.79l2.711-.92a0.85,0.85,0,0,0,.353-0.22l1.794-1.81c0.443-.28,2.634-0.17,4.62.23a0.937,0.937,0,0,0,.373,0c3.593-.81,7.582-1.65,8.634-1.79a28.066,28.066,0,0,1,2.6,4.92c-1.049-.13-2.121-0.25-3.205-0.36-8.978-.91-14.146-0.13-15.358,2.33a1.493,1.493,0,0,0,.043,1.47c0.748,1.22,3.4,1.68,9.8,1.68a1.532,1.532,0,0,1,1.419.45,0.751,0.751,0,0,1-.222.7,18.6,18.6,0,0,1-7.9.89,23.484,23.484,0,0,1-8.908-2.33,0.9,0.9,0,0,0,.226-0.45h0Zm33.71,7.24a62.822,62.822,0,0,1-7.484.82,15.256,15.256,0,0,0-4.047.87,37.049,37.049,0,0,1-11.316,1.87c-3.908,0-8.217-3.01-11.144-5.53a36.11,36.11,0,0,1-5.874-6.26,4.007,4.007,0,0,1,.432-0.08A23.769,23.769,0,0,0,954,6388c4.1,0.22,8.1-.56,8.932-1.4a2.587,2.587,0,0,0,.642-2.73c-0.242-.59-0.964-1.58-3.089-1.58-5.63,0-7.494-.39-8.09-0.71,0.571-.65,3.039-2.17,13.422-1.12,7.016,0.71,13.552,1.99,16.023,2.5Zm0,0" transform="translate(-937 -6346)"/>
</svg>
