<svg xmlns="http://www.w3.org/2000/svg" width="50" height="46" viewBox="0 0 50 46">
  <defs>
    <style>
      .cls-1 {
        fill: #fff;
        fill-rule: evenodd;
      }
    </style>
  </defs>
  <path id="icon2" class="cls-1" d="M984.19,5958h-3.456a0.817,0.817,0,0,0-.81.82v12.23h-3.563v-9.62a0.817,0.817,0,0,0-.81-0.82h-31.1a0.817,0.817,0,0,0-.81.82v9.62h-3.563v-12.23a0.817,0.817,0,0,0-.81-0.82H935.81a0.817,0.817,0,0,0-.81.82v44.36a0.817,0.817,0,0,0,.81.82h3.456a0.817,0.817,0,0,0,.81-0.82v-2.66h39.848v2.66a0.817,0.817,0,0,0,.81.82h3.456a0.817,0.817,0,0,0,.81-0.82v-44.36A0.817,0.817,0,0,0,984.19,5958Zm-18.2,11.2h8.748v1.85h-8.748v-1.85Zm8.748-1.63h-8.748v-5.33h3.564v0.93a0.81,0.81,0,0,0,1.62,0v-0.93h3.564v5.33Zm-10.367,3.48h-8.748v-8.81h3.564v0.93a0.81,0.81,0,0,0,1.62,0v-0.93h3.564v8.81Zm-19.115-8.81h3.564v0.93a0.81,0.81,0,1,0,1.62,0v-0.93h3.564v8.81h-8.748v-8.81Zm34.665,10.44v12.29h-3.563v-9.62a0.811,0.811,0,0,0-.81-0.82h-31.1a0.811,0.811,0,0,0-.81.82v9.62h-3.563v-12.29h39.848Zm-24.3,12.29v-8.81h3.564v0.92a0.81,0.81,0,1,0,1.62,0v-0.92h3.564v8.81h-8.748Zm-10.367,0v-1.85h8.748v1.85h-8.748Zm4.374-7.07a0.811,0.811,0,0,0,.81-0.82v-0.92h3.564v5.33h-8.748v-5.33h3.564v0.92A0.811,0.811,0,0,0,949.633,5977.9Zm16.36-1.74h3.564v0.92a0.81,0.81,0,1,0,1.62,0v-0.92h3.564v8.81h-8.748v-8.81Zm-27.537,26.21H936.62v-42.74h1.836v42.74Zm11.177-10.55a0.811,0.811,0,0,0,.81-0.82v-0.92h3.564v8.81h-8.748v-8.81h3.564V5991A0.811,0.811,0,0,0,949.633,5991.82Zm5.993-1.74h3.564V5991a0.81,0.81,0,1,0,1.62,0v-0.92h3.564v5.33h-8.748v-5.33Zm0,6.96h8.748v1.85h-8.748v-1.85Zm10.367,1.85v-8.81h3.564V5991a0.81,0.81,0,1,0,1.62,0v-0.92h3.564v8.81h-8.748Zm10.368,0v-9.63a0.809,0.809,0,0,0-.81-0.81h-31.1a0.809,0.809,0,0,0-.81.81v9.63h-3.563V5986.6h39.848v12.29h-3.563Zm7.019,3.48h-1.836v-42.74h1.836v42.74Z" transform="translate(-935 -5958)"/>
</svg>
