<svg xmlns="http://www.w3.org/2000/svg" width="200" height="39" viewBox="0 0 200 39">
  <defs>
    <style>
      .cls-1 {
        fill: #fff;
        fill-rule: evenodd;
      }
    </style>
  </defs>
  <path id="logo" class="cls-1" d="M407.829,34.671a0.732,0.732,0,1,1-.729.732A0.731,0.731,0,0,1,407.829,34.671Zm-26.251,0a0.732,0.732,0,1,1-.729.732A0.73,0.73,0,0,1,381.578,34.671Zm2.188,2.195a0.732,0.732,0,1,1-.729.732A0.73,0.73,0,0,1,383.766,36.865Zm4.375,0a0.732,0.732,0,1,1-.729.732A0.73,0.73,0,0,1,388.141,36.865Zm-2.188,2.2a0.732,0.732,0,1,1-.729.731A0.731,0.731,0,0,1,385.953,39.061Zm4.376,0a0.732,0.732,0,1,1-.73.731A0.731,0.731,0,0,1,390.329,39.061Zm2.187,2.195a0.732,0.732,0,1,1-.729.732A0.73,0.73,0,0,1,392.516,41.256Zm4.376,0a0.732,0.732,0,1,1-.73.732A0.731,0.731,0,0,1,396.892,41.256Zm2.187-2.195a0.732,0.732,0,1,1-.729.731A0.73,0.73,0,0,1,399.079,39.061Zm-4.375,4.39a0.732,0.732,0,1,1-.729.731A0.73,0.73,0,0,1,394.7,43.451Zm6.563-6.586a0.732,0.732,0,1,1-.73.732A0.731,0.731,0,0,1,401.267,36.865Zm4.375,0a0.732,0.732,0,1,1-.729.732A0.73,0.73,0,0,1,405.642,36.865Zm-2.188,2.2a0.732,0.732,0,1,1-.729.731A0.73,0.73,0,0,1,403.454,39.061Zm4.768,1.332,6.85-3.927-7.041-4.012,7.041-4.037L395.036,17,375,28.417l7.041,4.037L375,36.465l7.041,4.037L375,44.514,395.036,56l20.037-11.486L408.031,40.5l0.052-.03A0.672,0.672,0,0,0,408.222,40.392Zm-13.186-21.71,17.09,9.738-5.569,3.193h0l-11.52,6.6-17.09-9.8ZM383.115,33.524a0.717,0.717,0,0,0,1.155.208l1.65,0.945a0.729,0.729,0,1,0,.763.726,0.707,0.707,0,0,0-.1-0.344l7.533,4.318a0.711,0.711,0,0,0-.144.415,0.729,0.729,0,1,0,1.458,0,0.626,0.626,0,0,0-.021-0.1l7.33-4.2a0.721,0.721,0,0,0,.712.647,0.73,0.73,0,0,0,.729-0.732,0.717,0.717,0,0,0-.3-0.572l1.606-.921a0.668,0.668,0,0,0,.149.03,0.721,0.721,0,0,0,.684-0.508l0.233-.134,5.567,3.172-1.446.829a0.727,0.727,0,0,0-1.391.3,0.71,0.71,0,0,0,.145.415l-2.877,1.65h0L401.9,42.332a0.712,0.712,0,0,0,.1-0.346,0.73,0.73,0,1,0-.761.725l-1.65.946a0.726,0.726,0,0,0-1.235.523,0.707,0.707,0,0,0,.033.166l-3.347,1.918-4.023-2.306a0.721,0.721,0,0,0-.685-0.509,0.707,0.707,0,0,0-.15.031l-1.6-.92a0.718,0.718,0,0,0,.3-0.573,0.731,0.731,0,0,0-.729-0.732,0.723,0.723,0,0,0-.713.649L380.1,37.7a0.743,0.743,0,0,0,.021-0.105,0.731,0.731,0,0,0-.729-0.732,0.714,0.714,0,0,0-.453.172l-0.991-.568Zm29.01,10.994-17.089,9.8-17.089-9.8,5.566-3.172,11.523,6.606,11.523-6.606Zm31.1,0.2-2.24-5.583H429.009l-2.239,5.583h-2.24l9.263-22.709H436.2l9.264,22.709h-2.24ZM434.98,24.09l-5.326,13.278h10.688Zm15.5,17.976v8.92h-1.764V28.278h1.764v2.588a7.036,7.036,0,0,1,5.7-3c4.377,0,7.33,3.337,7.33,8.614,0,5.243-2.953,8.648-7.33,8.648A7,7,0,0,1,450.485,42.067Zm11.129-5.584c0-3.983-2.069-7.014-5.734-7.014a6.619,6.619,0,0,0-5.395,2.928v8.137a6.675,6.675,0,0,0,5.395,3C459.545,43.531,461.614,40.467,461.614,36.483Zm9.329,8.239V29.844h-4.818V28.278H477.56v1.566h-4.852V44.722h-1.765Zm8.55-7.422V35.666h8.143V37.3h-8.143Zm17.745,7.422V23.784h-7.4V22.013H506.6v1.771h-7.4V44.722h-1.968Zm8.175-8.239c0-4.766,3.36-8.614,7.907-8.614,4.987,0,7.735,3.983,7.735,8.716v0.477H507.347c0.17,3.575,2.545,6.537,6.414,6.537a7.189,7.189,0,0,0,5.36-2.281l0.917,1.157a8.439,8.439,0,0,1-6.413,2.656C508.84,45.131,505.413,41.556,505.413,36.483Zm7.873-7.082c-3.869,0-5.8,3.405-5.939,6.265h11.91C519.223,32.874,517.391,29.4,513.286,29.4Zm23.138,15.321L531,37.47l-5.463,7.252h-2.1l6.482-8.443-6.109-8h2.1L531,35.053l5.056-6.775h2.1l-6.107,8,6.48,8.444h-2.1Zm5.427,0V28.278h1.764v7.15h9.3v-7.15h1.764V44.722h-1.764V36.994h-9.3v7.729h-1.764Zm17.371-8.239c0-4.8,3.087-8.614,7.872-8.614,4.852,0,7.906,3.813,7.906,8.614s-3.054,8.648-7.906,8.648C562.309,45.131,559.222,41.284,559.222,36.483Zm13.878,0c0-3.643-2.138-7.014-6.006-7.014-3.8,0-5.972,3.371-5.972,7.014,0,3.677,2.172,7.048,5.972,7.048C570.962,43.531,573.1,40.16,573.1,36.483Z" transform="translate(-375 -17)"/>
</svg>
