<svg xmlns="http://www.w3.org/2000/svg" width="31" height="32" viewBox="0 0 31 32">
  <defs>
    <style>
      .cls-1 {
        fill: #fff;
        fill-rule: evenodd;
      }
    </style>
  </defs>
  <path id="icon7" class="cls-1" d="M1203.61,5427.74a4.428,4.428,0,1,0-2.21,8.27A4.434,4.434,0,0,0,1203.61,5427.74Zm0.74,5.54a3.419,3.419,0,0,1-2.95,1.71,3.379,3.379,0,0,1-1.69-.46,3.42,3.42,0,0,1-1.24-4.66,3.406,3.406,0,0,1,4.64-1.25A3.42,3.42,0,0,1,1204.35,5433.28Zm15.24-6.14a4.432,4.432,0,1,0,3.82,2.22A4.418,4.418,0,0,0,1219.59,5427.14Zm3.28,5.32a3.387,3.387,0,0,1-6.22.82,3.42,3.42,0,0,1,1.24-4.66,3.406,3.406,0,0,1,4.64,1.25A3.445,3.445,0,0,1,1222.87,5432.46Zm2.26-4.18a6.635,6.635,0,0,0-4.15-3.13,5.945,5.945,0,0,0-4.68.76,2.273,2.273,0,0,1-2.89-.27l9.49-13.61a4.287,4.287,0,0,0-1.04-5.94,0.471,0.471,0,0,0-.38-0.08,0.492,0.492,0,0,0-.33.21l-10.65,15.28-6.73-9.65a0.506,0.506,0,1,0-.83.58l7.55,10.85a2.381,2.381,0,0,0-2.22,1.56l-9.34-13.4a3.246,3.246,0,0,1-.53-2.42,3.186,3.186,0,0,1,.93-1.76l2.44,3.5a0.5,0.5,0,0,0,.71.12,0.513,0.513,0,0,0,.13-0.71l-2.76-3.95a0.513,0.513,0,0,0-.71-0.13,4.191,4.191,0,0,0-1.74,2.75,4.236,4.236,0,0,0,.7,3.19l9.48,13.61a2.259,2.259,0,0,1-2.88.27,5.962,5.962,0,0,0-4.69-.76,6.615,6.615,0,0,0-4.14,3.13,6.474,6.474,0,0,0,5.57,9.72,6.6,6.6,0,0,0,1.4-.15,6.466,6.466,0,0,0,3.87-2.58l3.79-5.44,3.79,5.44a6.473,6.473,0,0,0,3.86,2.58,6.736,6.736,0,0,0,1.4.15,6.47,6.47,0,0,0,6.23-4.8A6.5,6.5,0,0,0,1225.13,5428.28Zm-3.46-21.02a3.25,3.25,0,0,1,.93,1.76,3.207,3.207,0,0,1-.54,2.42l-9.28,13.33-0.33-.47c-0.01-.01-1.33-1.91-1.33-1.91Zm-15.79,27.42a5.439,5.439,0,0,1-9.13-5.89,5.59,5.59,0,0,1,3.5-2.64,4.961,4.961,0,0,1,3.9.62,3.3,3.3,0,0,0,4.03-.28l0.36,0.53a0.01,0.01,0,0,1,.01.01l0.01,0.01,1.32,1.89Zm18.91-1.75a5.424,5.424,0,0,1-9.67,1.75l-5.74-8.24a1.361,1.361,0,0,1,2.23-1.56l0.76,1.09a3.263,3.263,0,0,0,4.48.8,4.944,4.944,0,0,1,3.89-.62,5.609,5.609,0,0,1,3.51,2.64A5.4,5.4,0,0,1,1224.79,5432.93Zm-14.29-7.78a0.515,0.515,0,1,1-.51.52A0.514,0.514,0,0,1,1210.5,5425.15Z" transform="translate(-1195 -5406)"/>
</svg>
