<svg xmlns="http://www.w3.org/2000/svg" width="32" height="28" viewBox="0 0 32 28">
  <defs>
    <style>
      .cls-1 {
        fill: #fff;
        fill-rule: evenodd;
      }
    </style>
  </defs>
  <path id="icon3" class="cls-1" d="M720,5413.65h-5.5a4.532,4.532,0,0,0,.133-1.09,4.629,4.629,0,0,0-9.256,0,4.532,4.532,0,0,0,.133,1.09H700L694,5436h32Zm-10-4.35a3.265,3.265,0,1,1-3.311,3.26A3.288,3.288,0,0,1,710,5409.3Zm-8.984,5.65h5.039a4.659,4.659,0,0,0,7.889,0h5.04l5.3,19.75H695.711Zm8.353,6.57h-1.457l-3.106,3.27v-3.27H703.66v6.69h1.146v-1.87l0.99-1.06,2.252,2.93h1.359l-2.767-3.76Zm5.825,5.28a3.008,3.008,0,0,1-1.617.41,2.308,2.308,0,0,1-1.645-.65,2.248,2.248,0,0,1-.68-1.71,2.275,2.275,0,0,1,.7-1.73,2.46,2.46,0,0,1,1.728-.65,2.962,2.962,0,0,1,.938.13,2.34,2.34,0,0,1,.8.46l0.611-.86a3.589,3.589,0,0,0-2.436-.84,3.482,3.482,0,0,0-2.5.99,3.332,3.332,0,0,0-1.035,2.49,3.276,3.276,0,0,0,1.015,2.47,3.5,3.5,0,0,0,2.52.98,3.568,3.568,0,0,0,2.747-1.04v-2.29h-1.146v1.84h0Z" transform="translate(-694 -5408)"/>
</svg>
