<svg xmlns="http://www.w3.org/2000/svg" width="30" height="32" viewBox="0 0 30 32">
  <defs>
    <style>
      .cls-1 {
        fill: #fff;
        fill-rule: evenodd;
      }
    </style>
  </defs>
  <path id="icon5" class="cls-1" d="M1224.78,5092.87a49.139,49.139,0,0,1-4.73-4.12,7.5,7.5,0,0,1-2.14-3.39,14.558,14.558,0,0,0,.99-4.24c0.03-1.23-1.32-2.49-2.89-2.7-1.69-.24-2.98.77-3.45,2.67l-0.14.58a14.789,14.789,0,0,1-.48,1.78,1.114,1.114,0,0,1-.17-0.02,5.348,5.348,0,0,0-1.47,0,4.6,4.6,0,0,0-3.18,2.15,3.992,3.992,0,0,0-.62,3.15c0.4,1.42,1.51,1.28,2.49,1.15a5.672,5.672,0,0,1,2.68.13c2,0.65,6.66,5.84,8.29,7.79a0.575,0.575,0,0,0,.4.2h0.03a0.522,0.522,0,0,0,.39-0.17l4.06-4.1a0.61,0.61,0,0,0,.16-0.45A0.563,0.563,0,0,0,1224.78,5092.87Zm-4.36,3.73c-1.45-1.69-6.05-6.9-8.41-7.67h0a5.924,5.924,0,0,0-1.81-.28,10.089,10.089,0,0,0-1.35.11c-1.11.14-1.16,0.08-1.28-.34a2.88,2.88,0,0,1,.48-2.22,3.568,3.568,0,0,1,2.4-1.65,4.189,4.189,0,0,1,1.19,0c1.2,0.15,1.31-.32,1.87-2.61l0.14-.58c0.43-1.79,1.57-1.91,2.21-1.82a2.158,2.158,0,0,1,1.93,1.55,14.368,14.368,0,0,1-.97,3.99,0.635,0.635,0,0,0-.04.27c0.01,0.08.19,1.88,2.48,4.2a49.023,49.023,0,0,0,4.34,3.83Zm-12.77-13.83,0.13-.59a14.659,14.659,0,0,1,.45-1.78c0.05,0,.11.01,0.17,0.01a4.815,4.815,0,0,0,1.47-.02,4.6,4.6,0,0,0,3.14-2.21,3.945,3.945,0,0,0,.57-3.16c-0.43-1.41-1.53-1.25-2.51-1.1a5.77,5.77,0,0,1-2.69-.08c-2.01-.62-6.76-5.73-8.42-7.65a0.528,0.528,0,0,0-.4-0.19,0.589,0.589,0,0,0-.42.17l-3.98,4.18a0.572,0.572,0,0,0-.16.45,0.611,0.611,0,0,0,.23.41,48.24,48.24,0,0,1,4.8,4.03,7.517,7.517,0,0,1,2.2,3.35,14.58,14.58,0,0,0-.92,4.26c-0.01,1.23,1.36,2.47,2.94,2.65a2.934,2.934,0,0,0,.41.03C1206.15,5085.53,1207.25,5084.52,1207.65,5082.77Zm-1.09-.26c-0.41,1.81-1.54,1.95-2.18,1.87a2.14,2.14,0,0,1-1.95-1.52,14.146,14.146,0,0,1,.89-4.01,0.591,0.591,0,0,0,.04-0.27c-0.01-.07-0.23-1.88-2.55-4.15a49.233,49.233,0,0,0-4.41-3.76l3.13-3.27c1.48,1.67,6.16,6.79,8.53,7.52a6.966,6.966,0,0,0,3.17.12c1.11-.16,1.16-0.1,1.29.31a2.875,2.875,0,0,1-.45,2.23,3.5,3.5,0,0,1-2.37,1.69,4,4,0,0,1-1.19.02c-1.2-.13-1.31.35-1.82,2.64Z" transform="translate(-1195 -5066)"/>
</svg>
