<svg xmlns="http://www.w3.org/2000/svg" width="30" height="32" viewBox="0 0 30 32">
  <defs>
    <style>
      .cls-1 {
        fill: #fff;
        fill-rule: evenodd;
      }
    </style>
  </defs>
  <path id="icon2" class="cls-1" d="M610.868,5256.26a1.887,1.887,0,0,0,1.386-.78l4.981-6.9a0.537,0.537,0,0,0-.056-0.69,0.53,0.53,0,0,0-.688-0.06l-6.886,5a1.9,1.9,0,0,0,1.114,3.44C610.769,5256.27,610.818,5256.26,610.868,5256.26Zm-0.976-1.96a0.854,0.854,0,0,1,.338-0.61l4.2-3.04-3.038,4.21a0.857,0.857,0,0,1-.608.34,0.873,0.873,0,0,1-.653-0.24A0.859,0.859,0,0,1,609.892,5254.3Zm12.891-7.87c0-.01,0-0.02-0.011-0.03s-0.017-.02-0.024-0.03a14.625,14.625,0,0,0-1.9-2.56l1.143-1.15,0.752,0.76,2.256-2.27-2.256-2.26-2.257,2.26,0.752,0.76-1.142,1.14a14.7,14.7,0,0,0-2.558-1.9,0.051,0.051,0,0,1-.027-0.02,0.044,0.044,0,0,0-.034-0.01,14.21,14.21,0,0,0-5.464-1.82v-0.63h0.8a1.335,1.335,0,0,0,0-2.67h-4.787a1.335,1.335,0,0,0,0,2.67h0.8v0.61a14.381,14.381,0,0,0-1.715.29,0.53,0.53,0,0,0-.4.64,0.541,0.541,0,0,0,.637.4,14.907,14.907,0,0,1,1.479-.26l0.57-.04,0.492-.03v1.05a0.532,0.532,0,1,0,1.064,0v-1.05a13.084,13.084,0,0,1,5.561,1.52l-0.524.91a0.535,0.535,0,0,0,.195.73,0.509,0.509,0,0,0,.265.07,0.536,0.536,0,0,0,.461-0.27l0.523-.9a13.3,13.3,0,0,1,4.134,4.14l-0.906.52a0.537,0.537,0,0,0,.268,1,0.509,0.509,0,0,0,.265-0.07l0.908-.53a13.32,13.32,0,0,1,1.516,5.67h-1.051a0.526,0.526,0,0,0-.532.53,0.533,0.533,0,0,0,.532.53h1.051a13.32,13.32,0,0,1-1.516,5.67l-0.908-.53a0.531,0.531,0,0,0-.532.92l0.906,0.53a13.409,13.409,0,0,1-4.134,4.14l-0.523-.9a0.526,0.526,0,0,0-.726-0.2,0.535,0.535,0,0,0-.2.73l0.524,0.91a13.229,13.229,0,0,1-5.561,1.52v-1.05a0.532,0.532,0,1,0-1.064,0v1.05a13.68,13.68,0,0,1-2.54-.33,0.533,0.533,0,0,0-.238,1.04,14.067,14.067,0,0,0,3.222.37h0.1a14.22,14.22,0,0,0,7.031-1.91c0.017-.01.034-0.01,0.05-0.02a0.051,0.051,0,0,1,.027-0.02,14.557,14.557,0,0,0,5.2-5.21,0.124,0.124,0,0,0,.032-0.04,0.182,0.182,0,0,0,.011-0.03A14.39,14.39,0,0,0,622.783,5246.43Zm-0.037-6.03,0.752,0.75-0.752.76-0.753-.76Zm-12.857-1.19v-1.61h-1.862a0.265,0.265,0,1,1,0-.53h4.787a0.265,0.265,0,1,1,0,.53h-1.861v1.61c-0.185-.01-0.362-0.01-0.532-0.01h-0.087c-0.087,0-.174.01-0.262,0.01h-0.183Zm-4.255,4.26h-2.66a0.526,0.526,0,0,0-.532.53,0.533,0.533,0,0,0,.532.53h2.66a0.533,0.533,0,0,0,.532-0.53A0.526,0.526,0,0,0,605.634,5243.47Zm0,3.73h-5.32a0.535,0.535,0,0,0,0,1.07h5.32A0.535,0.535,0,0,0,605.634,5247.2Zm0,3.73h-7.979a0.535,0.535,0,0,0,0,1.07h7.979A0.535,0.535,0,0,0,605.634,5250.93Zm0,3.74H595.527a0.53,0.53,0,1,0,0,1.06h10.107A0.53,0.53,0,1,0,605.634,5254.67Zm0,3.73h-6.915a0.535,0.535,0,0,0,0,1.07h6.915A0.535,0.535,0,0,0,605.634,5258.4Zm0,3.73H601.91a0.535,0.535,0,0,0,0,1.07h3.724A0.535,0.535,0,0,0,605.634,5262.13Z" transform="translate(-595 -5236)"/>
</svg>
