<svg xmlns="http://www.w3.org/2000/svg" width="32" height="32" viewBox="0 0 32 32">
  <defs>
    <style>
      .cls-1 {
        fill: #fff;
        fill-rule: evenodd;
      }
    </style>
  </defs>
  <path id="icon6" class="cls-1" d="M1321.76,5257.93l-3.04,4.36-2.14-1.76a0.532,0.532,0,0,0-.76.08,0.539,0.539,0,0,0,.07.76l2.6,2.13a0.543,0.543,0,0,0,.34.12h0.08a0.564,0.564,0,0,0,.37-0.23l3.37-4.84a0.546,0.546,0,0,0-.14-0.76A0.536,0.536,0,0,0,1321.76,5257.93Zm0.44-3.23v-15.99a0.538,0.538,0,0,0-.54-0.54h-2.71v-1.63a0.538,0.538,0,0,0-.54-0.54h-3.8a0.538,0.538,0,0,0-.54.54v1.63h-11.93v-1.63a0.546,0.546,0,0,0-.55-0.54h-3.79a0.546,0.546,0,0,0-.55.54v1.63h-2.71a0.538,0.538,0,0,0-.54.54v27.66a0.546,0.546,0,0,0,.54.55h20.67A7.045,7.045,0,1,0,1322.2,5254.7Zm-7.05-17.62h2.71v3.26h-2.71v-3.26Zm-16.81,0h2.71v3.26h-2.71v-3.26Zm-3.26,2.17h2.17v1.63a0.546,0.546,0,0,0,.55.54h3.79a0.546,0.546,0,0,0,.55-0.54v-1.63h11.93v1.63a0.538,0.538,0,0,0,.54.54h3.8a0.538,0.538,0,0,0,.54-0.54v-1.63h2.17v4.34h-26.04v-4.34Zm0,26.58v-21.15h26.04v9.56c-0.11-.03-0.22-0.06-0.32-0.09s-0.21-.05-0.31-0.08-0.18-.03-0.27-0.05a2.982,2.982,0,0,0-.4-0.06l-0.23-.03c-0.21-.02-0.42-0.03-0.64-0.03a4.886,4.886,0,0,0-.54.03v-6.54H1297.8v15.73h14.44a0.784,0.784,0,0,1,.05.14l0.15,0.39a2,2,0,0,0,.1.21c0.06,0.14.12,0.28,0.19,0.41,0.04,0.06.07,0.12,0.1,0.17a4.785,4.785,0,0,0,.26.42,1.213,1.213,0,0,0,.1.14,3.792,3.792,0,0,0,.3.4c0.04,0.05.08,0.09,0.12,0.14a3.467,3.467,0,0,0,.25.29h-18.78Zm20.78-11.21c-0.05.03-.11,0.05-0.17,0.08-0.1.06-.2,0.11-0.3,0.17s-0.17.11-.26,0.16-0.17.11-.25,0.17-0.18.13-.27,0.2-0.15.12-.22,0.18c-0.09.08-.18,0.16-0.27,0.25-0.07.06-.13,0.12-0.19,0.18a4.121,4.121,0,0,0-.28.31,1.593,1.593,0,0,0-.13.13v-3.09h3.8v0.73a0.037,0.037,0,0,1-.03.01A7.424,7.424,0,0,0,1315.86,5254.62Zm-3.65,4.27c-0.02.06-.03,0.12-0.05,0.19-0.04.15-.09,0.31-0.12,0.47-0.03.13-.04,0.26-0.06,0.38s-0.04.21-.05,0.31c-0.02.23-.03,0.47-0.03,0.71a5.828,5.828,0,0,0,.03.59v0.11c0.01,0.09.03,0.17,0.04,0.26h0c0.01,0.04.01,0.08,0.02,0.12h-3.35v-3.79h3.8c0,0.01-.01.03-0.01,0.04A6.316,6.316,0,0,0,1312.21,5258.89Zm-13.33-.65h3.8v3.79h-3.8v-3.79Zm0-4.88h3.8v3.79h-3.8v-3.79Zm18.44-1.09h-3.79v-3.8h3.79v3.8Zm-4.88,0h-3.8v-3.8h3.8v3.8Zm0,4.88h-3.8v-3.79h3.8v3.79Zm-8.68-3.79h3.8v3.79h-3.8v-3.79Zm3.8-1.09h-3.8v-3.8h3.8v3.8Zm-4.88,0h-3.8v-3.8h3.8v3.8Zm1.08,5.97h3.8v3.79h-3.8v-3.79Zm15.19,8.68a5.936,5.936,0,0,1-3.31-1.01c-0.19-.13-0.36-0.26-0.53-0.4-0.06-.05-0.11-0.1-0.17-0.16a2.912,2.912,0,0,1-.31-0.3c-0.06-.06-0.12-0.13-0.18-0.2a4.031,4.031,0,0,1-.26-0.32c-0.05-.07-0.1-0.13-0.15-0.2-0.12-.18-0.24-0.36-0.34-0.54-0.02-.05-0.04-0.09-0.06-0.14-0.08-.15-0.15-0.31-0.22-0.47-0.03-.07-0.05-0.14-0.08-0.21-0.05-.15-0.1-0.29-0.14-0.44-0.01-.03-0.01-0.06-0.02-0.1a5.936,5.936,0,0,1-.14-0.71,0.433,0.433,0,0,1-.01-0.05,5.807,5.807,0,0,1-.05-0.72,6.078,6.078,0,0,1,.03-0.61,0.109,0.109,0,0,0,.01-0.05,4.852,4.852,0,0,1,.09-0.55,0.433,0.433,0,0,1,.01-0.05c0.04-.19.09-0.36,0.14-0.54a0.142,0.142,0,0,0,.02-0.06c0.06-.17.12-0.34,0.19-0.5s0.14-.31.22-0.46l0.06-.09a0.746,0.746,0,0,1,.07-0.12,4.53,4.53,0,0,1,.3-0.46c0.03-.04.05-0.07,0.08-0.11,0.1-.13.2-0.25,0.31-0.37,0.04-.04.07-0.09,0.11-0.13,0.11-.11.22-0.22,0.34-0.32,0.04-.04.08-0.07,0.12-0.11,0.13-.12.27-0.22,0.41-0.33a0.179,0.179,0,0,0,.07-0.05,5.981,5.981,0,0,1,2.39-.97h0.02a6.263,6.263,0,0,1,.98-0.09,4.442,4.442,0,0,1,.63.04c0.03,0,.06.01,0.09,0.01a5.067,5.067,0,0,1,.54.09,0.142,0.142,0,0,1,.06.02,4.945,4.945,0,0,1,.55.15,0.227,0.227,0,0,1,.04.01c0.19,0.07.37,0.14,0.55,0.22A5.964,5.964,0,0,1,1318.95,5266.92Z" transform="translate(-1294 -5236)"/>
</svg>
