<svg xmlns="http://www.w3.org/2000/svg" width="32" height="32" viewBox="0 0 32 32">
  <defs>
    <style>
      .cls-1 {
        fill: #fff;
        fill-rule: evenodd;
      }
    </style>
  </defs>
  <path id="icon1" class="cls-1" d="M710,5078.27a3.707,3.707,0,0,0-3.733,3.73,0.533,0.533,0,0,0,1.066,0,2.646,2.646,0,0,1,2.667-2.67A0.53,0.53,0,1,0,710,5078.27Zm10.133-7.47a0.5,0.5,0,0,0,.534-0.53,1.07,1.07,0,0,1,1.066-1.07,0.5,0.5,0,0,0,.534-0.53,0.51,0.51,0,0,0-.534-0.54,2.141,2.141,0,0,0-2.133,2.14A0.5,0.5,0,0,0,720.133,5070.8Zm-22.4-2.67a1.576,1.576,0,0,0-1.6,1.6,0.534,0.534,0,1,0,1.067,0,0.5,0.5,0,0,1,.533-0.53,0.5,0.5,0,0,0,.534-0.53A0.51,0.51,0,0,0,697.733,5068.13ZM721.2,5088.4a4.766,4.766,0,0,0-3,1.05l-3.685-3.69a5.891,5.891,0,0,0-.074-7.61l4.591-4.59a4.231,4.231,0,0,0,2.706.97,4.265,4.265,0,1,0-4.266-4.26,4.228,4.228,0,0,0,.834,2.52l-4.626,4.63a5.884,5.884,0,0,0-7.463.09l-5.466-5.56a3.747,3.747,0,1,0-.738.75l5.484,5.54a5.884,5.884,0,0,0,0,7.52l-2.782,2.79a5.29,5.29,0,0,0-3.375-1.22,5.352,5.352,0,1,0,4.122,1.96l2.782-2.78a5.886,5.886,0,0,0,7.526,0l3.685,3.68a4.827,4.827,0,0,0-1.048,3.01A4.8,4.8,0,1,0,721.2,5088.4Zm0.533-21.33a3.2,3.2,0,1,1-3.2,3.2A3.209,3.209,0,0,1,721.733,5067.07Zm-26.666,2.66a2.667,2.667,0,1,1,2.666,2.67A2.637,2.637,0,0,1,695.067,5069.73Zm4.266,27.2a4.265,4.265,0,1,1,2.876-7.41,0.536,0.536,0,0,0,.111.16,0.692,0.692,0,0,0,.166.12A4.258,4.258,0,0,1,699.333,5096.93ZM705.2,5082a4.8,4.8,0,0,1,1.3-3.3,0.225,0.225,0,0,0,.086-0.06,0.455,0.455,0,0,0,.083-0.11,4.832,4.832,0,0,1,6.561-.09,0.673,0.673,0,0,0,.076.09,0.48,0.48,0,0,0,.122.1,4.828,4.828,0,0,1,.132,6.6,0.6,0.6,0,0,0-.2.13,0.561,0.561,0,0,0-.129.2A4.808,4.808,0,0,1,705.2,5082Zm16,14.93a3.73,3.73,0,1,1,3.733-3.73A3.707,3.707,0,0,1,721.2,5096.93Zm0-6.4a2.646,2.646,0,0,0-2.667,2.67,0.534,0.534,0,0,0,1.067,0,1.569,1.569,0,0,1,1.6-1.6,0.5,0.5,0,0,0,.533-0.53A0.509,0.509,0,0,0,721.2,5090.53Zm-21.867-1.06a3.209,3.209,0,0,0-3.2,3.2,0.534,0.534,0,0,0,1.067,0,2.141,2.141,0,0,1,2.133-2.14A0.53,0.53,0,1,0,699.333,5089.47Z" transform="translate(-694 -5066)"/>
</svg>
