<svg xmlns="http://www.w3.org/2000/svg" width="25" height="32" viewBox="0 0 25 32">
  <defs>
    <style>
      .cls-1 {
        fill: #fff;
        fill-rule: evenodd;
      }
    </style>
  </defs>
  <path id="icon4" class="cls-1" d="M973,5491.39a3.355,3.355,0,0,0-1-2.4,3.447,3.447,0,0,0-4.835,0l-2.479,2.46-0.626-.62a1.364,1.364,0,0,0-1-.37,2.851,2.851,0,0,0-1.827.74,1.709,1.709,0,0,0,0,2.43l0.941,0.93L951.6,5505.05a2.919,2.919,0,0,0,0,4.16,2.976,2.976,0,0,0,4.205,0l10.574-10.48,0.941,0.93a1.724,1.724,0,0,0,2.448,0,2.8,2.8,0,0,0,.674-1.23,1.581,1.581,0,0,0-.3-1.57l-0.626-.62,2.479-2.45A3.372,3.372,0,0,0,973,5491.39Zm-18.135,16.89a1.663,1.663,0,0,1-2.322,0,1.62,1.62,0,0,1-.48-1.15,1.6,1.6,0,0,1,.48-1.15l10.575-10.48,2.322,2.3Zm13.963-9.55a0.391,0.391,0,0,1-.564,0l-1.412-1.4h0l-3.263-3.23h0l-1.412-1.4a0.413,0.413,0,0,1-.117-0.28,0.378,0.378,0,0,1,.117-0.28,1.521,1.521,0,0,1,.886-0.36h0.077l1.075,1.07h0l3.892,3.86h0l1.076,1.07A1.417,1.417,0,0,1,968.828,5498.73Zm2.229-5.88-2.478,2.46-2.952-2.93,2.479-2.45A2.076,2.076,0,1,1,971.057,5492.85Zm-19.64,18a0.682,0.682,0,0,0-.531.26c-0.482.63-2.886,3.86-2.886,5.5a3.417,3.417,0,0,0,6.834,0c0-1.64-2.4-4.87-2.887-5.5A0.68,0.68,0,0,0,951.417,5510.85Zm0,7.83a2.081,2.081,0,0,1-2.086-2.07c0-.74,1.092-2.57,2.086-3.98,0.994,1.41,2.085,3.23,2.085,3.98A2.081,2.081,0,0,1,951.417,5518.68Z" transform="translate(-948 -5488)"/>
</svg>
