<svg xmlns="http://www.w3.org/2000/svg" width="48" height="50" viewBox="0 0 48 50">
  <defs>
    <style>
      .cls-1 {
        fill: #95c11f;
        fill-rule: evenodd;
      }
    </style>
  </defs>
  <path id="icon3" class="cls-1" d="M857.778,979.214a3.126,3.126,0,1,0,3.111,3.125A3.123,3.123,0,0,0,857.778,979.214Zm0,4.464a1.339,1.339,0,1,1,1.333-1.339A1.338,1.338,0,0,1,857.778,983.678Zm20,9.822a6.175,6.175,0,0,0-3.911,1.395l-6.263-5.723a8.919,8.919,0,0,0-6.715-13.484v-7.259a6.222,6.222,0,1,0-1.778,0v7.259a8.92,8.92,0,0,0-6.716,13.483l-6.21,5.765a6.171,6.171,0,0,0-3.963-1.436,6.245,6.245,0,1,0,5.158,2.758l6.088-5.651a8.821,8.821,0,0,0,13.064,0l6.127,5.6A6.213,6.213,0,1,0,877.778,993.5Zm-35.556,10.71a4.462,4.462,0,1,1,4.445-4.46A4.457,4.457,0,0,1,842.222,1004.21Zm13.334-41.96A4.445,4.445,0,1,1,860,966.715,4.46,4.46,0,0,1,855.556,962.25ZM860,991.714a7.143,7.143,0,1,1,7.111-7.142A7.135,7.135,0,0,1,860,991.714Zm17.778,12.5a4.459,4.459,0,0,1-3.172-7.578l0.044-.048a4.415,4.415,0,0,1,3.128-1.3A4.462,4.462,0,0,1,877.778,1004.21Zm0-8.032a3.568,3.568,0,0,0-3.555,3.572,0.889,0.889,0,1,0,1.777,0,1.784,1.784,0,0,1,1.778-1.786A0.893,0.893,0,0,0,877.778,996.178Zm-35.556,0a3.567,3.567,0,0,0-3.555,3.572,0.889,0.889,0,1,0,1.777,0,1.784,1.784,0,0,1,1.778-1.786A0.893,0.893,0,0,0,842.222,996.178Zm18.667-36.606a0.891,0.891,0,0,0-.889-0.893,3.567,3.567,0,0,0-3.555,3.571,0.889,0.889,0,1,0,1.777,0A1.785,1.785,0,0,1,860,960.464,0.89,0.89,0,0,0,860.889,959.572Z" transform="translate(-836 -956)"/>
</svg>
