<svg xmlns="http://www.w3.org/2000/svg" width="50" height="50" viewBox="0 0 50 50">
  <defs>
    <style>
      .cls-1 {
        fill: #95c11f;
        fill-rule: evenodd;
      }
    </style>
  </defs>
  <path id="icon1" class="cls-1" d="M482.91,997.98l-9.623-9.584a0.791,0.791,0,0,0-.12-0.1l0.006-1.062,2.877-.4a0.773,0.773,0,0,0,.638-0.979l-0.8-2.781,2.647-1.192a0.779,0.779,0,0,0,.424-0.483,0.771,0.771,0,0,0-.089-0.636l-1.556-2.443,2.2-1.887a0.772,0.772,0,0,0,.006-1.168l-2.185-1.907,1.58-2.428a0.772,0.772,0,0,0-.325-1.122l-2.636-1.217,0.829-2.774a0.769,0.769,0,0,0-.089-0.635,0.778,0.778,0,0,0-.54-0.35l-2.873-.428,0.011-2.894a0.767,0.767,0,0,0-.266-0.584,0.777,0.777,0,0,0-.617-0.185l-2.878.4-0.808-2.78a0.774,0.774,0,0,0-1.064-.489l-2.649,1.186-1.561-2.439a0.778,0.778,0,0,0-1.16-.172l-2.206,1.882-2.189-1.9a0.779,0.779,0,0,0-1.161.161l-1.584,2.425-2.638-1.211a0.776,0.776,0,0,0-1.069.48l-0.835,2.772-2.874-.423a0.774,0.774,0,0,0-.889.76l-0.017,2.894-2.877.4a0.774,0.774,0,0,0-.638.979l0.8,2.781-2.647,1.193a0.77,0.77,0,0,0-.335,1.118l1.556,2.444-2.2,1.886a0.772,0.772,0,0,0-.006,1.168l2.185,1.907-1.58,2.428a0.773,0.773,0,0,0,.325,1.123l2.636,1.217-0.829,2.773a0.772,0.772,0,0,0,.629.985l2.873,0.429,0,1.3a0.844,0.844,0,0,0-.1.082l-2.278,2.269a0.772,0.772,0,0,0,0,1.094,0.78,0.78,0,0,0,1.1,0l1.413-1.407a0.794,0.794,0,0,0,.125.141,0.781,0.781,0,0,0,.618.184l2.878-.395,0.807,2.779a0.777,0.777,0,0,0,1.065.49l2.649-1.187,0.432,0.675-10.431,10.393-0.429-4.493a0.776,0.776,0,0,0-.7-0.7l-4.508-.427,3.493-3.479a0.775,0.775,0,1,0-1.1-1.094l-4.658,4.64a0.779,0.779,0,0,0,.475,1.317l5.51,0.523,0.525,5.49a0.786,0.786,0,0,0,1.322.47l11.354-11.307c0.1,0.162.2,0.338,0.319,0.491a0.786,0.786,0,0,0,1.115.109l2.207-1.882,2.188,1.9a0.789,0.789,0,0,0,1.167-.169c0.121-.18.237-0.364,0.356-0.546l11.448,11.4a0.786,0.786,0,0,0,1.322-.47l0.525-5.49,5.51-.523A0.78,0.78,0,0,0,482.91,997.98ZM463.916,991.1l-1.463,2.239-2.02-1.757a0.779,0.779,0,0,0-1.016,0l-2.037,1.738-0.126-.2a0.768,0.768,0,0,0-.225-0.493,0.736,0.736,0,0,0-.173-0.129l-0.918-1.434a0.778,0.778,0,0,0-.973-0.29l-2.446,1.1-0.746-2.566a0.776,0.776,0,0,0-.852-0.551l-2.657.365,0.01-2.671a0.774,0.774,0,0,0-.661-0.768l-2.653-.4,0.766-2.561a0.772,0.772,0,0,0-.418-0.922l-2.433-1.123,1.458-2.242a0.771,0.771,0,0,0-.14-1l-2.017-1.761,2.034-1.742a0.772,0.772,0,0,0,.149-1l-1.437-2.255,2.444-1.1a0.773,0.773,0,0,0,.426-0.918l-0.741-2.568,2.656-.37a0.774,0.774,0,0,0,.669-0.761l0.015-2.673,2.654,0.391a0.777,0.777,0,0,0,.857-0.543l0.77-2.559,2.436,1.119a0.778,0.778,0,0,0,.975-0.281l1.463-2.239,2.021,1.757a0.778,0.778,0,0,0,1.015,0l2.038-1.738,1.441,2.253a0.777,0.777,0,0,0,.973.289l2.447-1.1,0.746,2.566a0.775,0.775,0,0,0,.851.551l2.657-.365-0.01,2.671a0.776,0.776,0,0,0,.662.768l2.653,0.395-0.766,2.56a0.773,0.773,0,0,0,.418.923l2.433,1.123-1.458,2.242a0.771,0.771,0,0,0,.14,1l2.017,1.761-2.034,1.742a0.772,0.772,0,0,0-.149,1l1.437,2.256-2.444,1.1a0.773,0.773,0,0,0-.426.919l0.741,2.567-2.656.37a0.775,0.775,0,0,0-.669.762l-0.015,2.671-2.654-.39a0.778,0.778,0,0,0-.857.543l-0.77,2.559-2.436-1.119A0.779,0.779,0,0,0,463.916,991.1Zm12.222,7.236a0.774,0.774,0,0,0-.7.7l-0.43,4.493L464.5,993.054l0.357-.546,2.638,1.212a0.782,0.782,0,0,0,.644,0,0.771,0.771,0,0,0,.424-0.483l0.835-2.771,2.874,0.422a0.778,0.778,0,0,0,.619-0.178,0.76,0.76,0,0,0,.218-0.311l7.542,7.511ZM460,960.138a15.608,15.608,0,1,0,14.059,22.55,0.776,0.776,0,0,0-1.391-.687,13.965,13.965,0,1,1,1.2-3.518,0.776,0.776,0,0,0,1.524.3A15.631,15.631,0,0,0,460,960.138Zm11.622,13.327-4.348-6.6a0.775,0.775,0,0,0-.649-0.349h-13.25a0.775,0.775,0,0,0-.649.349l-4.348,6.6a0.771,0.771,0,0,0,.055.922l10.973,12.992a0.777,0.777,0,0,0,1.188,0l10.973-12.992A0.771,0.771,0,0,0,471.622,973.465Zm-4.916-4.644,2.693,4.089h-4.812Zm-1.355-.757-2.05,3.955-2.117-3.955h4.167Zm-3.332,4.846h-4.038L460,969.14Zm-3.2-4.846-2.129,3.976-2.129-3.976h4.258Zm-5.571.833,2.148,4.013H450.6Zm-2.725,5.56h5.568l2.523,9.578Zm9.48,8.757-2.306-8.757h4.612Zm1.389,0.821,2.523-9.578h5.568Zm22.937-23.491a4.337,4.337,0,0,1-2.8-1.567,4.229,4.229,0,0,1-.872-2.263,0.777,0.777,0,0,0-1.548,0,4.232,4.232,0,0,1-.873,2.263,4.336,4.336,0,0,1-2.8,1.567,0.773,0.773,0,0,0,0,1.533,4.333,4.333,0,0,1,2.8,1.566,4.232,4.232,0,0,1,.873,2.263,0.777,0.777,0,0,0,1.548,0,4.229,4.229,0,0,1,.872-2.263,4.335,4.335,0,0,1,2.8-1.566A0.773,0.773,0,0,0,484.326,960.544Zm-4.026,2.145a5.648,5.648,0,0,0-.424.62,5.523,5.523,0,0,0-.425-0.62,5.581,5.581,0,0,0-1.59-1.379,5.581,5.581,0,0,0,1.59-1.379h0a5.638,5.638,0,0,0,.424-0.619,5.638,5.638,0,0,0,.424.619,5.581,5.581,0,0,0,1.59,1.379A5.581,5.581,0,0,0,480.3,962.689Zm-35.726-2.145a4.34,4.34,0,0,1-2.8-1.567,4.238,4.238,0,0,1-.872-2.263,0.777,0.777,0,0,0-1.548,0,4.221,4.221,0,0,1-.872,2.263,4.337,4.337,0,0,1-2.8,1.567,0.773,0.773,0,0,0,0,1.533,4.335,4.335,0,0,1,2.8,1.566,4.221,4.221,0,0,1,.872,2.263,0.777,0.777,0,0,0,1.548,0,4.238,4.238,0,0,1,.872-2.263,4.337,4.337,0,0,1,2.8-1.566A0.773,0.773,0,0,0,444.574,960.544Zm-4.026,2.145a5.648,5.648,0,0,0-.424.62,5.648,5.648,0,0,0-.424-0.62,5.581,5.581,0,0,0-1.59-1.379,5.581,5.581,0,0,0,1.59-1.379,5.638,5.638,0,0,0,.424-0.619,5.638,5.638,0,0,0,.424.619h0a5.6,5.6,0,0,0,1.591,1.379A5.6,5.6,0,0,0,440.548,962.689Zm23.9,36.83a4.34,4.34,0,0,1-2.8-1.567,4.238,4.238,0,0,1-.872-2.262,0.776,0.776,0,0,0-1.548,0,4.229,4.229,0,0,1-.872,2.262,4.34,4.34,0,0,1-2.8,1.567,0.772,0.772,0,0,0,0,1.531,4.322,4.322,0,0,1,2.8,1.57,4.2,4.2,0,0,1,.872,2.26,0.776,0.776,0,0,0,1.548,0,4.208,4.208,0,0,1,.872-2.26,4.324,4.324,0,0,1,2.8-1.57A0.772,0.772,0,0,0,464.45,999.519Zm-4.026,2.141a7.082,7.082,0,0,0-.424.62,7.082,7.082,0,0,0-.424-0.62,5.434,5.434,0,0,0-1.591-1.37,5.647,5.647,0,0,0,2.015-2,5.638,5.638,0,0,0,.424.619h0a5.693,5.693,0,0,0,1.59,1.383A5.418,5.418,0,0,0,460.424,1001.66Z" transform="translate(-435 -956)"/>
</svg>
