<svg xmlns="http://www.w3.org/2000/svg" width="50" height="50" viewBox="0 0 50 50">
  <defs>
    <style>
      .cls-1 {
        fill: #95c11f;
        fill-rule: evenodd;
      }
    </style>
  </defs>
  <path id="icon2" class="cls-1" d="M635.221,965.067a2.283,2.283,0,0,1,1.3-1.182,10.507,10.507,0,0,0,6.361-6.362,2.3,2.3,0,0,1,4.329,1.553,15.479,15.479,0,0,1-.773,1.792l0.006,0,22.56,22.561a4.613,4.613,0,0,1,1.361,3.286,4.692,4.692,0,0,1-.167,1.238l8.232,9.329,5.28,5.283,0.034-.04a0.746,0.746,0,0,1,1.038,0,0.736,0.736,0,0,1,0,1.04l-0.553.55h0l-1.106,1.11h0l-0.554.55a0.722,0.722,0,0,1-1.038,0,0.725,0.725,0,0,1,0-1.03l0.035-.04-5.28-5.278-9.329-8.231a4.728,4.728,0,0,1-1.238.167,4.614,4.614,0,0,1-3.286-1.362l-22.561-22.56,0-.006a15.479,15.479,0,0,1-1.792.773A2.3,2.3,0,0,1,635.221,965.067Zm42.055,33.279c0.012,0.011.023,0.021,0.033,0.032l5.3,5.292,0.069-.06-5.3-5.3c-0.011-.011-0.022-0.022-0.032-0.034l-7.83-8.874a4.778,4.778,0,0,1-.51.605,4.7,4.7,0,0,1-.6.51Zm-13.8-9.378a3.18,3.18,0,1,0,4.5-4.5l-10.283-10.283-4.5,4.5Zm-11.321-11.321,4.5-4.5-10.962-10.962a14.944,14.944,0,0,1-4.5,4.5ZM636.518,966.33a0.832,0.832,0,0,0,1.063.5,13.539,13.539,0,0,0,8.251-8.251,0.831,0.831,0,1,0-1.565-.562,11.972,11.972,0,0,1-7.247,7.247A0.83,0.83,0,0,0,636.518,966.33Zm43.608,1.116,0-.006a15.479,15.479,0,0,0,1.792.773,2.3,2.3,0,1,0,1.553-4.328,10.507,10.507,0,0,1-6.361-6.362,2.3,2.3,0,0,0-4.329,1.553,15.479,15.479,0,0,0,.773,1.792l-0.006,0-22.56,22.561a4.613,4.613,0,0,0-1.361,3.286,4.692,4.692,0,0,0,.167,1.238l-8.232,9.329-5.28,5.283-0.034-.04a0.746,0.746,0,0,0-1.038,0,0.736,0.736,0,0,0,0,1.04l0.553,0.55h0l1.106,1.11h0l0.554,0.55a0.722,0.722,0,0,0,1.038,0,0.725,0.725,0,0,0,0-1.03l-0.035-.04,5.28-5.278,9.329-8.231a4.728,4.728,0,0,0,1.238.167,4.614,4.614,0,0,0,3.286-1.362m-14.841,8.34c-0.012.011-.023,0.021-0.033,0.032l-5.3,5.292-0.069-.06,5.3-5.3c0.011-.011.022-0.022,0.032-0.034l7.83-8.874a4.778,4.778,0,0,0,.51.605,4.7,4.7,0,0,0,.6.51Zm13.8-9.378a3.18,3.18,0,1,1-4.5-4.5l10.283-10.283,4.5,4.5m1.038-1.038-4.5-4.5,10.962-10.962a14.944,14.944,0,0,0,4.5,4.5Zm15.633-11.317a0.832,0.832,0,0,1-1.063.5,13.539,13.539,0,0,1-8.251-8.251,0.831,0.831,0,1,1,1.565-.562,11.972,11.972,0,0,0,7.247,7.247A0.83,0.83,0,0,1,683.482,966.33Z" transform="translate(-635 -956)"/>
</svg>
